<svg width="800" height="520" viewBox="0 0 800 520" fill="none" xmlns="http://www.w3.org/2000/svg">
  <rect width="800" height="520" rx="40" fill="#0E1724" />
  <rect x="50" y="50" width="700" height="420" rx="32" fill="#112137" />
  <rect x="90" y="90" width="140" height="40" rx="14" fill="#1F2C43" />
  <rect x="250" y="90" width="360" height="40" rx="14" fill="#1F2C43" />
  <rect x="90" y="150" width="160" height="160" rx="28" fill="#172736" />
  <rect x="280" y="150" width="160" height="160" rx="28" fill="#172736" />
  <rect x="470" y="150" width="160" height="160" rx="28" fill="#172736" />
  <rect x="90" y="330" width="540" height="120" rx="28" fill="#172736" />
  <rect x="620" y="150" width="110" height="300" rx="28" fill="#172736" />
  <rect x="110" y="175" width="120" height="24" rx="12" fill="#7F5CFF" />
  <rect x="110" y="215" width="100" height="16" rx="8" fill="#fff" opacity="0.18" />
  <rect x="110" y="245" width="80" height="16" rx="8" fill="#fff" opacity="0.18" />
  <rect x="110" y="280" width="100" height="16" rx="8" fill="#fff" opacity="0.18" />
  <rect x="300" y="175" width="120" height="24" rx="12" fill="#FF8F5C" />
  <rect x="300" y="215" width="140" height="16" rx="8" fill="#fff" opacity="0.18" />
  <rect x="300" y="245" width="120" height="16" rx="8" fill="#fff" opacity="0.18" />
  <rect x="300" y="280" width="60" height="16" rx="8" fill="#fff" opacity="0.18" />
  <rect x="490" y="175" width="120" height="24" rx="12" fill="#7F5CFF" />
  <rect x="490" y="215" width="110" height="16" rx="8" fill="#fff" opacity="0.18" />
  <rect x="490" y="245" width="95" height="16" rx="8" fill="#fff" opacity="0.18" />
  <rect x="490" y="280" width="110" height="16" rx="8" fill="#fff" opacity="0.18" />
  <rect x="110" y="355" width="460" height="20" rx="10" fill="#7F5CFF" />
  <rect x="110" y="385" width="220" height="16" rx="8" fill="#fff" opacity="0.18" />
  <rect x="110" y="410" width="280" height="16" rx="8" fill="#fff" opacity="0.18" />
  <rect x="110" y="435" width="180" height="16" rx="8" fill="#fff" opacity="0.18" />
  <rect x="640" y="175" width="70" height="30" rx="15" fill="#7F5CFF" />
  <circle cx="655" cy="255" r="28" fill="#FF8F5C" />
  <circle cx="655" cy="350" r="18" fill="#7F5CFF" />
  <rect x="620" y="410" width="70" height="50" rx="16" fill="#1F2C43" />
</svg>
